HIERARCHY
ROOT Hips
{
	OFFSET 0.000000 0.000000 0.000000
	CHANNELS 6 Xposition Yposition Zposition Yrotation Xrotation Zrotation
	JOINT Chest
	{
		OFFSET 0.000000 -0.009281 11.569106
		CHANNELS 3 Yrotation Xrotation Zrotation
		JOINT Chest2
		{
			OFFSET -0.000000 0.016865 9.269641
			CHANNELS 3 Yrotation Xrotation Zrotation
			JOINT Chest3
			{
				OFFSET -0.000000 0.000001 8.374491
				CHANNELS 3 Yrotation Xrotation Zrotation
				JOINT Chest4
				{
					OFFSET -0.000000 0.000001 8.374493
					CHANNELS 3 Yrotation Xrotation Zrotation
					JOINT Neck
					{
						OFFSET -0.000000 0.000002 12.152554
						CHANNELS 3 Yrotation Xrotation Zrotation
						JOINT Head
						{
							OFFSET -0.000000 0.040101 7.802319
							CHANNELS 3 Yrotation Xrotation Zrotation
							End Site
							{
								OFFSET -0.000000 0.020947 14.853096
							}
						}
					}
					JOINT RightCollar
					{
						OFFSET 2.894404 0.000001 6.791374
						CHANNELS 3 Yrotation Xrotation Zrotation
						JOINT RightShoulder
						{
							OFFSET 13.574684 0.000001 0.000000
							CHANNELS 3 Yrotation Xrotation Zrotation
							JOINT RightElbow
							{
								OFFSET 23.923903 0.000002 0.000000
								CHANNELS 3 Yrotation Xrotation Zrotation
								JOINT RightWrist
								{
									OFFSET 19.846718 0.012767 0.000000
									CHANNELS 3 Yrotation Xrotation Zrotation
									End Site
									{
										OFFSET 14.973145 0.000001 0.000000
									}
								}
							}
						}
					}
					JOINT LeftCollar
					{
						OFFSET -2.894404 0.000001 6.791374
						CHANNELS 3 Yrotation Xrotation Zrotation
						JOINT LeftShoulder
						{
							OFFSET -13.574684 -0.000001 0.000000
							CHANNELS 3 Yrotation Xrotation Zrotation
							JOINT LeftElbow
							{
								OFFSET -23.923903 -0.000002 0.000000
								CHANNELS 3 Yrotation Xrotation Zrotation
								JOINT LeftWrist
								{
									OFFSET -19.846718 0.012763 0.000000
									CHANNELS 3 Yrotation Xrotation Zrotation
									End Site
									{
										OFFSET -14.973145 -0.000001 0.000000
									}
								}
							}
						}
					}
				}
			}
		}
	}
	JOINT RightHip
	{
		OFFSET 9.469263 0.004643 0.045487
		CHANNELS 3 Yrotation Xrotation Zrotation
		JOINT RightKnee
		{
			OFFSET 0.000000 0.002661 -40.478676
			CHANNELS 3 Yrotation Xrotation Zrotation
			JOINT RightAnkle
			{
				OFFSET 0.000000 0.049106 -35.224068
				CHANNELS 3 Yrotation Xrotation Zrotation
				JOINT RightToe
				{
					OFFSET -0.000001 12.539529 -6.151390
					CHANNELS 3 Yrotation Xrotation Zrotation
					End Site
					{
						OFFSET -0.000001 5.044994 -1.291870
					}
				}
			}
		}
	}
	JOINT LeftHip
	{
		OFFSET -9.469263 0.004641 0.045487
		CHANNELS 3 Yrotation Xrotation Zrotation
		JOINT LeftKnee
		{
			OFFSET 0.000000 0.002661 -40.478676
			CHANNELS 3 Yrotation Xrotation Zrotation
			JOINT LeftAnkle
			{
				OFFSET 0.000000 0.049106 -35.224068
				CHANNELS 3 Yrotation Xrotation Zrotation
				JOINT LeftToe
				{
					OFFSET -0.000001 12.539529 -6.151390
					CHANNELS 3 Yrotation Xrotation Zrotation
					End Site
					{
						OFFSET -0.000001 5.044994 -1.291870
					}
				}
			}
		}
	}
}
MOTION
Frames: 16
Frame Time: 0.016667
21.345781 10.270128 83.116539 -6.769809 -4.404418 -119.486045 3.359419 -4.959146 9.005952 1.600649 -2.137566 4.055196 1.600649 -2.137566 4.055198 1.214601 -1.592652 3.046672 1.472334 -12.231964 3.759947 4.399106 13.266346 7.798846 6.694174 4.895990 -16.925788 64.600045 -9.000411 39.855131 20.512197 -40.194027 82.833672 -2.302888 -6.943776 -2.289390 2.065456 -0.129415 -27.367246 -80.857501 37.413717 -92.881147 -45.934641 39.794817 -68.119328 65.092823 31.975759 15.572601 -1.920508 -10.123993 -3.295438 0.108870 -3.263984 -0.697022 2.229272 4.739246 4.269440 -0.122296 -0.035308 -0.015782 -1.397580 -11.281972 3.530186 -0.216930 -1.013286 -0.916819 -0.510222 4.224128 2.184095 0.132431 -0.011336 0.016808 
21.337051 10.294241 83.121628 -6.729613 -4.377262 -119.431172 3.351917 -4.988970 8.994841 1.596745 -2.151125 4.048167 1.596745 -2.151125 4.048167 1.211735 -1.602865 3.041414 1.435322 -12.079499 3.800713 4.358732 13.548878 7.872994 6.716647 4.838687 -16.946640 64.703823 -8.835657 39.949841 17.702460 -39.758152 84.432975 -5.352663 -5.655775 1.951842 2.092206 -0.125340 -27.371300 -80.869843 37.413430 -92.968013 -45.909164 39.657035 -68.163690 65.069648 32.046998 15.600519 -1.927152 -10.050340 -3.297216 0.121568 -3.307112 -0.717757 2.230619 4.750781 4.200449 -0.101368 -0.029513 -0.017840 -1.389878 -11.213178 3.606184 -0.237644 -1.010792 -0.974972 -0.527506 4.195053 2.146504 0.136095 -0.010539 0.018489 
21.329557 10.317048 83.127167 -6.705218 -4.353964 -119.378019 3.349792 -5.026836 8.981047 1.594904 -2.167646 4.039585 1.594903 -2.167646 4.039586 1.210432 -1.615290 3.035014 1.395423 -11.945168 3.849188 4.314685 13.797451 7.959292 6.742406 4.825826 -16.968247 64.780287 -8.685567 39.966381 15.256073 -39.300488 85.441992 -8.954728 -4.078368 6.445957 2.113904 -0.105936 -27.374177 -80.916821 37.411651 -93.047059 -45.866196 39.546286 -68.146696 65.040811 32.147300 15.638526 -1.953264 -9.983176 -3.306307 0.142689 -3.370168 -0.711903 2.226234 4.770239 4.166080 -0.077545 -0.022034 -0.017652 -1.384849 -11.163925 3.689803 -0.256049 -1.005881 -1.020986 -0.553730 4.163892 2.064528 0.141314 -0.007696 0.019038 
21.323534 10.339871 83.132889 -6.702441 -4.336798 -119.324416 3.359399 -5.071796 8.964073 1.597447 -2.187460 4.029688 1.597447 -2.187460 4.029690 1.212431 -1.630161 3.027643 1.351790 -11.833082 3.903041 4.263985 14.004706 8.052572 6.759624 4.821567 -16.978694 64.844894 -8.610596 39.958915 13.395092 -38.839625 85.683391 -12.911707 -2.129076 10.906775 2.124190 -0.079068 -27.380140 -80.953595 37.410872 -93.083184 -45.846265 39.500732 -68.124252 65.031782 32.346529 15.727856 -1.968788 -9.934258 -3.311827 0.148113 -3.442337 -0.691052 2.215392 4.795768 4.082121 -0.054743 -0.014867 -0.018173 -1.389132 -11.131537 3.746144 -0.270247 -1.011765 -1.034439 -0.581109 4.136629 1.971326 0.145847 -0.003566 0.020625 
21.315954 10.356406 83.138092 -6.713882 -4.325909 -119.272711 3.379735 -5.116473 8.943065 1.604308 -2.207009 4.018637 1.604309 -2.207008 4.018639 1.217662 -1.644807 3.019427 1.303701 -11.749302 3.962623 4.204825 14.159456 8.152676 6.770547 4.835847 -16.955236 64.882501 -8.584982 39.895210 11.653491 -38.373034 85.565468 -17.060873 0.008147 15.138781 2.143475 -0.078366 -27.368664 -80.972487 37.399814 -93.109364 -45.839848 39.548592 -68.113809 65.014207 32.529923 15.841983 -1.984815 -9.896194 -3.298178 0.144885 -3.525356 -0.684866 2.207334 4.826928 4.029803 -0.032433 -0.008236 -0.015899 -1.392683 -11.110226 3.773404 -0.284521 -1.029693 -1.047559 -0.605781 4.119992 1.936450 0.146937 -0.001702 0.020847 
21.310982 10.374660 83.142090 -6.730947 -4.316227 -119.225610 3.402721 -5.159473 8.924984 1.613677 -2.225554 4.009779 1.613677 -2.225554 4.009777 1.224777 -1.658677 3.012856 1.257313 -11.691216 4.021536 4.146438 14.266508 8.250191 6.784795 4.829649 -16.912802 64.904952 -8.530432 39.790438 9.726119 -37.944003 85.337060 -21.194360 2.522178 18.978437 2.142298 -0.069325 -27.361094 -80.988278 37.367938 -93.118756 -45.817247 39.634836 -68.067213 64.991518 32.673415 15.903563 -2.002410 -9.863900 -3.293068 0.148486 -3.609355 -0.677523 2.187776 4.861540 3.970964 -0.011388 -0.004969 -0.017104 -1.396381 -11.089973 3.773673 -0.303896 -1.062727 -1.054228 -0.621630 4.113214 1.905704 0.144257 0.000467 0.020835 
21.304874 10.394352 83.145210 -6.747866 -4.308193 -119.181105 3.421605 -5.200279 8.911407 1.621884 -2.243588 4.002560 1.621884 -2.243588 4.002561 1.231020 -1.672170 3.007519 1.220721 -11.655034 4.078782 4.104173 14.332273 8.346971 6.810670 4.863455 -16.878900 64.883321 -8.488065 39.690796 8.059372 -37.627106 84.726796 -25.412217 5.292720 22.499922 2.148188 -0.057817 -27.357701 -81.058096 37.320522 -93.163473 -45.715494 39.730408 -67.913978 65.003354 32.833570 15.942008 -2.026840 -9.821965 -3.304756 0.155097 -3.711396 -0.664660 2.166764 4.900793 3.935832 0.009674 -0.000563 -0.019048 -1.404355 -11.060017 3.736475 -0.318817 -1.113859 -1.039200 -0.631358 4.117994 1.907631 0.139066 0.000081 0.021312 
21.299469 10.418509 83.148384 -6.772215 -4.305203 -119.139796 3.441586 -5.230785 8.891215 1.630794 -2.257195 3.993239 1.630795 -2.257195 3.993237 1.237755 -1.682342 3.000589 1.196645 -11.646063 4.137088 4.083900 14.346473 8.448965 6.827515 4.915195 -16.850235 64.820872 -8.537605 39.574847 6.944373 -37.423501 83.651799 -29.608450 8.138280 25.611124 2.143654 -0.056519 -27.366767 -81.148412 37.285641 -93.198853 -45.563488 39.837830 -67.693950 65.016106 32.952753 15.963585 -2.049984 -9.787157 -3.309634 0.155362 -3.814921 -0.662287 2.147273 4.939761 3.885717 0.029991 0.002793 -0.020196 -1.412566 -11.029493 3.681873 -0.330516 -1.186504 -1.022400 -0.636533 4.132255 1.889586 0.130192 0.001498 0.020092 
21.296789 10.438836 83.151878 -6.805645 -4.309936 -119.104046 3.467543 -5.253430 8.868267 1.641372 -2.266702 3.983332 1.641371 -2.266703 3.983332 1.245712 -1.689430 2.993224 1.183731 -11.663968 4.194501 4.082167 14.309970 8.551849 6.829525 4.939811 -16.829711 64.790935 -8.675518 39.448581 6.126395 -37.254918 82.332050 -33.441453 10.847720 27.992106 2.146461 -0.088139 -27.370154 -81.263863 37.248143 -93.256391 -45.367691 39.993896 -67.418789 64.951534 33.052689 15.978311 -2.070564 -9.766164 -3.305417 0.153323 -3.913459 -0.671823 2.126173 4.976090 3.907916 0.048956 0.005417 -0.020198 -1.423376 -11.009471 3.640625 -0.340691 -1.266768 -1.025288 -0.635145 4.153217 1.903967 0.120437 0.003557 0.019844 
21.296286 10.460481 83.155411 -6.846367 -4.318049 -119.078734 3.492402 -5.280336 8.853599 1.651308 -2.278431 3.976559 1.651308 -2.278431 3.976557 1.253213 -1.698181 2.988209 1.179502 -11.692107 4.243388 4.092434 14.254393 8.641283 6.831924 4.935867 -16.807284 64.784262 -8.845657 39.337887 5.349388 -37.025530 80.971216 -36.728652 13.130901 29.572561 2.126900 -0.087238 -27.377888 -81.371288 37.216424 -93.273398 -45.218291 40.152777 -67.146620 64.889741 33.219243 16.048962 -2.087096 -9.750828 -3.299689 0.147009 -4.021264 -0.669592 2.102522 5.019551 3.868801 0.063840 0.007882 -0.021124 -1.437960 -11.003628 3.624759 -0.348237 -1.339438 -1.034083 -0.635198 4.173369 1.917752 0.111935 0.005715 0.020142 
21.296505 10.477943 83.158554 -6.893969 -4.327163 -119.062847 3.514566 -5.319792 8.850010 1.659606 -2.295686 3.974922 1.659606 -2.295686 3.974919 1.259539 -1.711073 2.987056 1.179749 -11.719898 4.279057 4.105594 14.200080 8.707333 6.848550 4.934540 -16.776288 64.767323 -8.929164 39.227091 4.777648 -36.859078 79.512725 -39.636510 15.024739 30.611040 2.130224 -0.087841 -27.379563 -81.504176 37.162117 -93.303799 -45.160979 40.316605 -66.970094 64.887330 33.392467 16.179166 -2.114424 -9.731653 -3.300270 0.145826 -4.146843 -0.642095 2.075050 5.068424 3.843637 0.077859 0.011758 -0.020258 -1.457620 -11.008239 3.628634 -0.352055 -1.408957 -1.046211 -0.637225 4.193115 1.925636 0.103827 0.009380 0.019903 
21.298458 10.493888 83.160629 -6.944390 -4.334349 -119.050388 3.540360 -5.357888 8.836999 1.669240 -2.312040 3.968973 1.669240 -2.312040 3.968972 1.266846 -1.723292 2.982668 1.179746 -11.755124 4.313106 4.116870 14.132134 8.769542 6.856185 4.943461 -16.743708 64.737100 -8.956679 39.127760 4.612022 -36.857162 77.829691 -42.328205 16.760348 31.339889 2.111825 -0.093382 -27.367041 -81.604935 37.118386 -93.282209 -45.148380 40.460388 -66.842000 64.899310 33.471588 16.281795 -2.137923 -9.713327 -3.294895 0.142079 -4.280949 -0.593183 2.037635 5.126593 3.770083 0.091675 0.014485 -0.020380 -1.481762 -11.018422 3.631706 -0.354095 -1.474831 -1.035253 -0.641761 4.216219 1.927284 0.097159 0.010853 0.019671 
21.300344 10.506898 83.161644 -6.997197 -4.341312 -119.033313 3.571479 -5.388714 8.807973 1.681266 -2.325354 3.955719 1.681267 -2.325354 3.955718 1.275898 -1.733237 2.972808 1.179698 -11.805307 4.347359 4.126711 14.036450 8.830830 6.851324 4.975792 -16.701617 64.684705 -9.030189 38.996279 4.765986 -36.933128 76.066123 -44.655070 17.956458 31.610085 2.089683 -0.136866 -27.339572 -81.712907 37.088702 -93.255639 -45.091119 40.589543 -66.697712 64.765513 33.415710 16.271949 -2.167753 -9.692603 -3.290463 0.144366 -4.423683 -0.532902 1.994748 5.188630 3.701588 0.105646 0.016701 -0.019743 -1.503303 -11.035549 3.624892 -0.354633 -1.533425 -1.022601 -0.649570 4.237717 1.900934 0.090609 0.011075 0.018681 
21.302803 10.515652 83.162537 -7.056404 -4.351547 -119.012522 3.595552 -5.416225 8.781554 1.690060 -2.337283 3.943124 1.690059 -2.337282 3.943123 1.282519 -1.742162 2.963425 1.190858 -11.865893 4.370454 4.152205 13.921383 8.874660 6.867504 4.985541 -16.664820 64.577034 -9.103591 38.844280 4.881058 -36.934583 74.458891 -46.148204 18.421362 31.415120 2.052143 -0.158699 -27.323830 -81.776940 37.060159 -93.163726 -44.935087 40.684930 -66.480936 64.526730 33.276596 16.194409 -2.191764 -9.685191 -3.307613 0.148758 -4.562079 -0.462946 1.939511 5.250100 3.629164 0.120150 0.020135 -0.020369 -1.524129 -11.059630 3.618082 -0.357887 -1.593938 -1.020087 -0.651920 4.263506 1.909390 0.083510 0.010108 0.019381 
21.305485 10.521835 83.163399 -7.113018 -4.359653 -118.981772 3.614335 -5.444830 8.744663 1.697135 -2.350186 3.926613 1.697135 -2.350186 3.926611 1.287842 -1.751839 2.951103 1.206862 -11.928778 4.394623 4.187132 13.801526 8.922367 6.877931 5.026617 -16.635686 64.436770 -9.196875 38.664902 4.846977 -36.941966 73.031518 -46.858718 18.222275 30.905202 2.036807 -0.196437 -27.298031 -81.871347 37.040526 -93.107377 -44.805939 40.757617 -66.283229 64.341844 33.201078 16.150826 -2.211977 -9.676036 -3.330208 0.149746 -4.702151 -0.403784 1.884691 5.313429 3.540033 0.132785 0.023459 -0.020459 -1.535983 -11.082847 3.597525 -0.363924 -1.653059 -1.034303 -0.654219 4.288078 1.904309 0.075111 0.010591 0.019612 
21.307362 10.524199 83.163734 -7.165883 -4.366034 -118.950449 3.632040 -5.472146 8.704887 1.704339 -2.362578 3.908612 1.704339 -2.362579 3.908612 1.293253 -1.761137 2.937664 1.223796 -11.996973 4.418600 4.223182 13.671740 8.969586 6.882475 5.071568 -16.604607 64.245053 -9.250829 38.493112 4.876484 -37.083511 71.689932 -47.227545 17.722905 30.193965 2.012992 -0.218439 -27.258556 -81.941472 37.016234 -93.016398 -44.850642 40.831984 -66.249515 64.279122 33.156183 16.185651 -2.230232 -9.659335 -3.332289 0.149736 -4.850229 -0.367506 1.833261 5.382577 3.489094 0.140994 0.025447 -0.020969 -1.551567 -11.097280 3.564146 -0.365239 -1.720474 -1.027754 -0.655354 4.318294 1.910391 0.066616 0.010277 0.020464 
